<svg xmlns="http://www.w3.org/2000/svg" fill="currentColor" viewBox="0 0 417 424">
  <path d="M205.9 424c-5.7-.6-8.6-1.3-14.8-1.6-17.3-.6-34.1-2-49.9-9.5-1.4-.6-2.3-2.2-3.6-2.7-3.7-1.6-8.8-1.3-12.5-4.8-.3-3.8 4.4-4.6 7.4-3.7 1.6.5 3 3.4 6.1 2.2l-.8-2.8 1.2-1.2c4.1.5 10.6 1.8 14.5 1.6 2.6 0 4-1.4 6.4-1.7 8.5-1 17.3 1.3 26.3-.2.7 0 2.4-.3 2.2-1.4-19-3-38.5-1.7-57.1-7.4-1.7-.5-3-2.4-4.4-2.8-2.8-.7-7.3-.2-10-1.2-2-.7-4.4-5.1-9.3-6.8A146 146 0 0 1 65 358.4c-7-5.7-12.6-12.8-18.8-19.3-4.5-4.5-9.2-7.7-13.3-13-2.3-2.7-3.9-8-7.7-10.5-1.6-.3-1.4.6-1 1.8 1.7 5 8 12.4 11.5 16.6 4.8 5.8 9.2 9.3 14.7 14.2 5.2 4.5 10.6 12.4 16.6 17 3.8 3 9.8 4.6 13.2 7 2 1.3 2.5 3.8 4.5 5 1.2.8 4.7 1.5 5 1.9.6.9 0 3.8 3.1 5.3 6 2.9 10.9 3.8 17 7.8 1.4.9 10.6 7.1 9.7 8.3-5.5 2-10.1-3.7-14.4-5.9-2.3-1.1-7.2-2.2-9.5-3.1-.7-.3-5.8-5.4-7.5-6.5-2.4-1.5-7.5-2.8-9.1-4.4-1.2-1.1-1.2-2.7-2-3.7-4-4.5-8.6-2.6-12-4.7-.4-.3-1-2-2.1-3-2.6-1.9-8.8-4.7-10.7-6.6-1-1-1-3.4-2-4.4a194 194 0 0 1-43.7-64c-1.5-3.7-8.8-17-5.8-19.9 1.1-1 6.4-3 8-2.4.7.3 6.9 8.3 7.8 9.6 9.3 13.3 15.6 22.4 28.3 33 5.3 4.4 10.9 11.5 16.2 15.8 6.7 5.4 15.8 8.5 23 13 4.3 2.6 10.8 8.6 14.6 10.2 7.4 3 6.7 3.3 12.8 7.2 7.1 4.5 11.5 5 19 7.4 5 1.6 7.7 5.2 14 2.5 1.3-.5 1.6-2.2 3.2-3.2 6.5-3.9 15.6-5.9 22.3-9.7 1.7-1 3.4-.7 5-2.2 2.9-2.4 4.2-7.7 6.2-10 1.6-1.8 5-2 6.4-3.9 1.2-1.4 4-8.9 4.3-10.9 1.1-6.5-3.3-18-6-24-2.1-4.3-8-7-9.3-10.9-2.8-7.8 0-16.6-2.1-23.5-.5-1.7-2.3-2.6-3.3-4-.5-.7-.3-2-.5-2.3 0 0-2.8 1.5-3.2-.4-.5-3.2 3-2.6 3.2-2.8.3-.3-.8-2.7-.5-4 1-4.3 8.4-9.1 3.8-14.7-.3-.3-6.7-3.6-7.6-3.9-5-2-8.1-3-13.1-5.2-3.4-1.6-10.2-2.3-9.9-7 .1-1.8 1.5-2.8 1.7-4.7.3-2.6-1.4-5.6-.5-7.7.6-1.3 6.2-6.9 7.7-9.4 2.5-4.2 4.6-12 7.3-14.8 2-2 4.1-2.1 5.8-3.8.5-.5 6.3-8.4 6.6-8.9.9-2-.7-3.5.3-6 .8-2.2 3-3.3 4.2-5.4 2.5-4.2 8-16.4 7-21-1.1-5.5-6.1-.8-9.3-.5-4 .4-6.6-.8-6-5 1.4-9.7 8-12.3 16-15.8-.2-2.3-2.7-3.7-3.4-5-1.5-2.9-.6-6.4-4.4-6.4v-3.9h3.9c-2.8-5.2 2.4-9.1 4.3-13.6 1.1-2.6 1.6-7 2.6-9.4.5-1.2 2-1 2.5-2.3 2.3-5.7 2.4-14.4 3.8-20.3a46 46 0 0 1 5.2-12.3c-1.6-3.6-4.4-2.8-6.6-3.8-8.2-3.9-5.8-2.7-14.3-3.5-9.3-.9-18.5-3.4-27.6-1.2-2.3.5-6 1.8-8 1.7-2.4 0-3.7-2.5-5.5-2.3-1.6.2-3.3 2.6-5.1 3-1.8.2-3.3-1.2-5-.4-3.7 1.6-10 8.8-14.2 10.7-5.5 2.6-13.6 2.7-19.7 6-2.7 1.4-8.8 8.2-10.2 9s-3.3.5-5.8 2.1C70.2 77.2 63.8 85.8 59.1 91c-8.2 8.8-21.4 19.7-27.1 29.8-1.3 2.2-2 6.4-3.2 8-1.3 1.8-5.2 2-6.2 5.2l-6-1 .9-2.3-5.6.8c-1.8-2 2.2-10.7 3.4-13 7.4-14.3 32.3-50.4 43.9-60.3.9-.8 5.5-4.6 6.4-3.7 0 3.6-2 9.6-4.8 11.7-1.7 1.2-4.1 1-4.6 1.4-.3.3-.2 1.8-1 2.6-2.6 2.7-7.9 1-4 9.2-1.5.5-2.2-1.4-2.9-1.4-2.7 0-3.5 5.4-.7 7 5.5-3 13.4-3.9 18.2-8 1.6-1.4 2.1-4.3 4.3-5.5s6.4-.9 8.2-2.7c.8-.8.9-2.6 2.2-3.8 7.4-7.4 16.1-9 25.2-13.3 7.5-3.4 15.2-8 23.3-11.1 9.8-3.6 37.4-6.8 47.6-5.7a193 193 0 0 1 102.3 38.6c30.1 22.3 44.2 53.7 52.6 88.4A197 197 0 0 1 294.4 329c-4 5-5.3 5.2-9.5 9.3a137 137 0 0 1-36.4 27.3 186 186 0 0 1-68.4 19c-6.5.2-13.2-.3-19.7 0-.5 1.6 1.5 2.5 2.5 2.7 3.4.9 13.4.8 17.2.5a176 176 0 0 0 83.3-26.5c12-7.6 22.5-17 33.3-26 16.7-14.2 36.6-52.2 42.3-73.2 7.6-28 8.9-57.2 6.6-86.3l.4-8.4c1.9 2.6 2.2 7 2.7 10.1 5.2 37-1.9 73.5-13.2 108.3-10 30.8-40.7 63.3-67 80.5-1.7 1.2-9.4 4.8-10 5.5-.6.5-.3 2.1-1 2.6-3.9 2.8-20.3 8-25 9.4-4 1.2-8.1 2-11.1 5 2.3 1.5 7.9 0 10.5-.6a234 234 0 0 0 45.3-24c52-37.6 78.2-85.6 82-150 .7-10-1.5-20.1 0-30l1.3.8c5.2 34.6.3 69-12.3 101.5-17.6 45.1-54.4 79.1-97.4 99.8-2.7 1.3-7.4 4.2-9.5 4.9a164 164 0 0 1-36 6.8l2.4 1.6c2.3 2.5-11.7 5-13 5.1-7.3 1-16.2.2-24 .7-5.4.4-8 0-13 0-1.8 0-7 .6-8.6 1.1-1.5.4-2 .3-1.7 2 2.7.4 5.3 2.2 7.8 2.5 4.2.5 6.2.7 10.7 2a168 168 0 0 0 36.5 4.5c6.2 0 15.8.7 20-4l1.8 2.4c4.4-2 9.1-1.1 13.5-1.7 17.5-2 37.8-8.6 54.4-13.9 4.2-1.4 11.5-5.5 15.6-7.6a169 169 0 0 0 67.1-66 294 294 0 0 0 28.2-65.6c14.8-52.4 10.7-109-20.3-154A241 241 0 0 0 334 57.6l-28.2-21.7c-1.4-3 2.3-3.3 4.2-3.1 4 .4 9.6 7.7 13 10.3 22.6 17.6 40.8 26 57.8 51a205 205 0 0 1 35 99.6c.4 4.6-.8 11 1.2 15.3v16c-2.8 2.5-1.2 6.9-1.6 10.1-4.6 39.4-21.9 78-45.5 109.6-7 9.3-15.5 21.3-23.5 28.8-3.2 3-8.3 6.4-11.9 9.5l.8 1.5c-10.9 3-22 16.6-31.8 20.7-3 1.2-6.3 1-9.3 2-18.3 5.8-34.5 12.6-54.4 14.6-9 .9-18.5-.3-27.7.6-1.6.2-4 .3-5.2 1.4h-.8zm56.3-344.7c-9.2-6.6-17.6-14.4-28.7-19-5.5-2.2-10.7-2.3-16-3.8-5.9-1.8-11.4-6.4-17.3-4 0 1.2 1 2.2 1.2 3.5 2.4 19.8-4.6 29.6-9.8 46.8-.7 2.5 0 4.8-.3 6-.2.7-4.3 3.6-4.5 6.7-.4 4.7 8.4 13 10.3 17.6.9 5.1-4.7 22.2-7 27.5-5.7 13.1-19.5 40.6-28.7 50.5-1.8 2-6.4 4-6 6.7.2.6 2.5 4.5 3 4.6 1.7.4 3.7-1 5.4-.8a86 86 0 0 1 18 8.4c2.7 1.8 5.6 5.5 8.3 7 3 1.6 15.8 4.7 15.7-.8-.1-4.2-12.5-5.2-15.9-6.7v-2c.7-2 15.5-9.4 18-9.3q1-.1 2 .4l2 9.2c2.6-2.5-2.3-15-1.3-16 1.6-.4 2.1.2 3.2 1.1 5.5 4.2 7.2 11.5 10 16.4 1 1.8 3.6 3.1 4.4 5.3l-2.4 2.8h5.6c1 1.3 1 7 1.2 7.2.8 1.4 5.5 2.6 4.4 6.5-2 .6-3.2 1.4-5.2 0-3-2-1.3-4.9-2.1-6.4-.4-.6-3.4-1-4.1-2.7-.7-1.6-.2-4.5-.7-5.3-.2-.4-2.5-.6-3.5-1.7-2-2.2 0-5.8-4.9-6.4-3.3-.4 1.1 4.2 1.5 4.9 5.2 10 10.9 20.2 16.4 29.3 2 3.2 5.5 6.3 5.8 10.6-1.8-.8-2.3-3-3.5-4.5-5.9-7.1-11-15.7-17.3-23-2.2-2.5-5.9-3-5.7-6.9l-2 7.2c-5.3 4.4-12 5.7-18.7 6.3-1.6 0-3-.8-4.5-.6-4 .5-7.5 9.3-6.1 13.1 2.3 2.7 5.4 1 8 1.7 4 1.3 18.3 11 21.3 10.8.6 0 4.3-2.5 4.4-3 .7-2.4-2.9-16.1 4.4-11.3 2.9 1.9 1 3.7 1.7 5.5 2.9 10.2 9 17.2 14.2 25.9 1.6 2.7 4.7 7.1.7 8.5-1.6-3.3-5.4-5.4-8-8.4-2-2.2-3-7.2-7.2-6.8l-.8 5.2 2.3 19.9c-5.6 7.2-11 1.3-13.3-5-1.5-3.8-2.4-13.5-5-16.5a95 95 0 0 0-12.4-10c-5.8-2.3-10.7 2-8 8 1.8 4 12 10.5 15.2 15.3a43.6 43.6 0 0 1-3.5 53 68 68 0 0 1-28.6 16.6l-7.1.5c-1.2 0-2.7-1.8-4.4-1.3 2 3.4 10.2 3.8 14 3.9 19.4.5 40.7-2.9 59.2-8.9s30.5-16 44.2-28.8c14.5-13.6 22.4-27.9 32.5-45.1 4-7 6.2-13 9-20.6 9.6-24.5 11.4-55.3 9.4-81-.6-7.1.6-21.3-1.6-27.1-.3-1-1.8-1-2.4-2.5-6.3-15.6-8.6-27.5-17.4-42.7-11.8-20.6-22.2-28-40.8-41.4zM199 278c-2-2-1.7-3.7-6-2.9 2.6 2.4 4 5.5 8 4.8 0-1-1.4-1.2-2-1.9M20.3 302.5c-.6-.5-3.1-2.5-3.7-1.9-1.2 3.7 1.9 5.2 2.7 7.2 1 2.2.5 7.2 4.4 6.4-1.8-2.1-2.9-3.5-2.4-6.5 0 .5 7.8 6.7 6.4 2.8-.6-1.5-6-6.9-7.5-8zm20.6 24.3c-1-1-1.6-3-3.1-3.7-2-.3-1.3 1.4-.8 2.4.8 1.4 6 6.8 7.5 8.4a161 161 0 0 0 26.2 22.7c12 7.7 27 13.2 39.4 19.2 2.1 1 9.5 3.5 11.4 1.3l-24.3-10.3a238 238 0 0 1-56.4-40.1zm100.6 53.4c-2.7-1.2-5.3.8-7.4.6-1.6-.2-2.1-2-3.4-2.2-2.1-.6-5 .3-7-1.5-2.6 1.5-3.5 4.6.6 3.8l1-1.6c2.3 3.4 5.7 1.8 8.6 2.4.6 0 .5 1.4 1.6 1.7 1.4.4 9.4 2.7 8.5-.5-1-.2-2.4-2.5-2.6-2.6zm9.9 6.2c.7-3.6-3.8-4-6.5-4 .2 3 3.9 4.3 6.5 4m44.9 7.1c2.8 1.1 4.2-.8 6.8-.9 3.1-.1 7.8.5 11 0 2.1-.3 4.8-1 6.3-2.6 0-3.3-10.2.9-11 1.1-1.5.2-2.8-.6-3.8-.4-2.6.5-7.7 1-9.3 3zm-6.5 6.4h11.7s1.3-1 1.2-1.6c-4 .3-7.7-.7-11.7 0-1.3.3-1.4-.5-1.2 1.6"/>
  <path d="M150.6 12.3c.3 1.4 1.5 1.6 2.8 1.6 6.5 0 16.2-2.6 23.3-2.8 63-1.2 123 33 156.2 84.7 8.2 12.5 10.3 19.3 15.1 33.8 2.8 8.6 7.2 16.4 7.1 26l-8.7-24.4c-8.2-17.2-16-33.6-28-48.7-33.6-42.3-78.8-63-132.9-67-14.3-1-21.4 1.1-34.6 3-1.8.3-5.2-.8-7.5.2-.6-3.2 4.8-.8 4-4-4.2-1.8-5.2.2-8 1.1-18 5-37 17.5-52 27.4-4.8 3.2-9.3 8-14.8 10.1-7.1 3-7.1 0-2.9-5.3 3.2-4.2 12.8-8.4 17.5-11.3C98.6 29.6 111 21 123.7 15.4c8.6-3.8 18.2-6.1 27-9.1 39.8-13.4 113.8-4.4 149.5 18.2q3.6 2 6.1 5c-3 7.5-9.6 2.2-14.6-.5-16.7-9.4-29.9-14-49.1-17.4-7.3-1.3-13.5-2.8-21-4a154 154 0 0 0-59.8.9c-3.3.9-7.2 3.5-11 3.8z"/>
  <path d="M290.7 64.6c.8.8 1 2.3 1.8 3 26 27.7 36 41.7 47.6 78.5.8 2.6 2.7 5.6 3.2 8 .3 1.4.7 1.8-1 2.3q-1.8-5.6-4-11c-5.7-13.4-11.5-29-19.4-41.4-15.2-23.4-48.7-54.6-75.8-63.6-27.2-9-61.8-14.8-90.3-11.2-25 3.2-43.4 15.7-66.3 23.4q-3.2 1-6 2.8l-.4-2L95.3 44c18.4-5.5 36-17.7 55.9-19.5 34-3.2 78.5 4.7 109.5 20.1a178 178 0 0 1 30 20m52.8 271.8-6 5.3-1.2 2.8c-20.6 21-41.3 42.5-69.8 53.1-19.2 7.1-58 17.8-77.9 16.9-2 0-12.6-1-13.2-1.6-3.1-3.4 9.2-2.7 9.8-2.7 16.7-1.4 33.3-4.4 49.5-8a162 162 0 0 0 47.3-16.8 230 230 0 0 0 44.4-35.7c18.2-17.8 30.2-36 41.2-60 2.2-4.6 1.7-8.2 2.8-11.6.7-2.2 4.5-5.6 4.6-8.6l-.3 6.6c-7.8 21.4-15.6 43.3-31.3 60.4"/>
  <path d="M359.5 336.3a176 176 0 0 1-51.9 49.6c-3.4 2-8 4-11.6 6.3-3.8 2.5-2.3 1.1-6.1 2.3-2 .6-4.2 3-6.3 1.8 1.6-1.4 3.5-3.1 5.4-4.3 10.9-6.8 26.8-15 36-23.4 3.2-3 6-7.5 9.4-10.4 7.9-6.3 7.8-5.6 14.1-14 18.3-24.4 30.1-44.7 37.8-75.3 4.6-18.5 12-45.2 12-64.2 0-5.3-2.6-13.5-2.5-19.1q0-2.7 2-4.5c1.4 1 1.1 2.1 1.2 3.6 4 54.8-9.4 106-39.6 151.4zM288.8 35.2c28.4 20 52.9 43.1 66.2 76 3.1 7.6 7 18.6 9.4 26.6a172 172 0 0 1 6.6 41c-3.5-2-1.5-6-1.8-8.2A202 202 0 0 0 319.8 67c-11.8-12.7-30.2-30.7-46-39.1-4.5-2.5-11.3-3.4-15-7.3 1-1.7 3.2-.5 4.7 0 10.8 3.8 16.6 8.5 25.3 14.6"/>
  <path d="M371 227c-.2 4.1.3 8.3 0 12.4-1.6 19.7-11.1 45.3-19 63.4-11.1 25.5-36.8 49.7-58.3 66.7a182 182 0 0 1-35.6 22.2q-4.7 1.8-9.8 1.8c-.4-2.1.5-1.4 1.6-2 2.5-1.5 5.2-1.6 7-2.6 8.5-4.4 17.6-12.3 25.6-17a170 170 0 0 0 67.5-73.6c2.1-4.2 5.2-10.6 6.6-15 3.7-11.3 7.8-24 10.2-36.3 1-5.8 1-12.9 2.5-18.3.4-1.4-.6-2.2 1.7-1.8M336.3 65.4c20.3 16.6 32.9 40.2 40.7 66.2 3.2 10.7 7.5 25.2 8.2 36.6.2 4.1-1 6.7-1.3 10.6-1.4 2-2.7-3.5-2.8-4-7-34.5-10.6-54.4-29.5-85.7a126 126 0 0 0-20-26c1.2-.8 3.6 1.6 4.6 2.4zM132.7 360.1s1.3 2.4.6 3c-1.7 2.3-17.2-2.1-17.3-4.4 3.6-3.5 8 .1 11 .9 1.3.3 4.3-.5 5.6.5m148.5 40.6q-7.3 2.8-15.1 4.1c.8-6.2 9.7-5 14-8zM359 170.1l-2.5-.5c-.4-4.3-2.6-9-1.5-13.1 1.2 0 1.7 3 2 4 .8 3.2 1 6.5 2 9.6m28.9-39.3c-2.4.4-1.2-.7-1.7-2-1.1-3-2.7-6-3.1-9.3 3 2.3 4.5 7.6 4.8 11.3M183.3 306.3c1.1 2-3.1 5.5-4 4.7v-6.4zm194.9-46.5c.8 1-1.2 11-3.2 8.8l1.5-7c.4-1.2-.6-2.1 1.7-1.7zm3.2-12.1-2.8 9.7c-1.9-1.7.2-6.1 1-7.8.5-1.2-.5-2.3 1.8-1.8M267.9 114.5a81 81 0 0 1 24.2 30.7c2.5 5 7.9 14.8 3.2 19-12.7-9.6-16.7-26.2-28.4-37-2.6-2.3-6.3-3-7.9-6.8l-20.7-8.9c-.9 1-5 3.3-5 3.6-.3.3-.4 2 .4 2 3.1 2.3 7.5 3.2 10.5 4.7 19.1 9.9 21.2 14.6 32 32 2.3 3.9 7.7 10.5 9.2 14.1.6 1.4 1.1 7-1.2 6-1.6-.6-7.5-13.4-9.4-16.2-1.7-2.6-4.8-5.2-6.2-7.8l-1.6.4.4 2-2.3.8c-1-2.7-4.2-3.2-5.2-4.2-.8-.8-.4-2.4-1.5-3-1.5-1-4.1-.8-5.9-.8l6.4 4.4c3.1 6.9 11.3 13.3 13.4 20.3.7 2.2 2.2 5.4-1 5.8-3-3.8-5-8-10-9.6-1.2 1.1 10.7 14.6 10.9 16.5 0 .6-.3 6.8-2.2 5.2 0-2.6-9.8-13.5-11.3-12 1 5.5 8.3 9.9 7.7 15.2-3-2.4-5-5.6-7.7-8.5-3.6-4-7.7-4.4-5.6-10.8 9 2.2 1.6-3 .6-5-.6-1.2-.4-2.6-1.1-3.8-.4-.7-3.5-3-4-4.8-3.2.2.7 3.6 1 4.6 2.6 5.7 1 12-2.5 17l-2-1.4c1.6-5.3-3.6-6.9-7-9.7-6.9 1.7-14.5-5.1-17.1-11-3-6.5 2.8-5.6 3.2-10.8-6.5.2-9.6 6.3-8.9 12-1 .3-1.3 0-2-.7-.4-.3-4-8-4.2-8.7-.3-3.2 1.3-6.8.5-9.2-.5-1.4-3.6-2.2-4.3-3.7-.6-1.4 1-4.2.3-6.6-.7-2.2-4.4-2.3-4.7-5s2.3-5 3-7.5c1-3.5.6-7.3 1.7-10.8.4-.7 8-2.7 9.3-2.9 11.3-1.3 33.2-2 43.1 3.3 3.8 2 6.6 5.2 9.7 7.6zm-44.4-6.9c-5.9-.2-12-.5-14.4 6 5.2 5.7 17.3 4.3 14.4-6m27.8 22.7c-1.3-1-3.1-.5-4.6-.2.7 1.9 3.6 2.5 2.4 4.8 3-1.6 5.1 1.3 7.6 3.2.7.5 1 2 1.4 2.2 1.8 1 3.7-.3 5 4.2l1.1-4.7c-1.6-.4-4.4-1.5-5.7-2.5-2-1.6-3.2-3-5.8-4.8-.7-.5-.8-1.7-1.4-2.2m21.9 202.4c-1.5-1.4 3.7-6.4 4.2-7.4 8.4-16.4 11.4-41.1 11.4-59.5 0-6.4-1.6-13.3 0-19.7 1.4 1 1 2.3 1.2 3.7 2.2 21 3.7 34.6-1.1 55.8-1.4 5.8-3.9 7-6 11.7-1.7 3.4-3.5 13.1-6.7 15-.7.4-3 .7-3.2.4zm38.4-56.1c-1.6.2-1.3.1-1.8-1-1.6-3.6.5-6 .5-9.3a263 263 0 0 0-7.9-59.4c-1.6-7.4-4.3-14.7-3.6-22.4 1.1-.2 1.1 1.4 1.4 2.2 6.5 20.7 9.2 42.5 12.4 63.8.5 3.7 3 10.5 2.8 14.1-.2 2.7-3.8 8.4-3.6 12zm8.1-33.6c-1.3 1.1-1.4-.2-1.6-1.3-1-5.9-1-11.8-1.7-17.5-2.2-15.6-7.2-31-10.8-46.2-.6-2.6-.5-5.4-1.2-8 1.7-.3 2 .8 2.4 2 3.8 9.5 6.3 21.5 8.7 31.5 2.9 12.1 5.8 21 5 34.2q-.1 2.6-.8 5.2m-72.1 110.6c-.6-.6 6.2-13.5 6.8-15.2l2.4-7.2c1.5-5 8.8-39.2 12.9-39.2 3 0-.6 6.8-.8 8-3.6 16-7.9 33.2-15.6 47.7-1.6 2.9-.4 6.7-5.7 5.9m54.2-60.3-4.5 4.3c3.9-22.9 2.1-46-.8-69 1-.1 1.2 2.3 1.4 3.1.3 1.7 0 3.5.4 5.2.9 4 2.2 7.7 3.1 12.2 1 4.7 1 5.5 1.1 10.3.4 7.8 2 21.9 1.3 29-.2 1.9-1.2 3.2-1.9 4.9"/>
  <path d="m281.2 259.8 1.5 23.6c-1.8 8-3 16.5-5.1 24.5-.7 3-1.4 6.2-4 8-1.6 0-.4-5.8-.3-6.7 1.7-10 7.6-33.3 6.2-42.5-.3-2.2-3.8-5.5 1.6-6.8zM234 362.3c1.7-4.8 4.8-8.8 6.7-13.6 3.4-8.7 6.2-19.5 9-28.6 1.2-3.6.6-6 5.1-8.3-2.6 12.8-4.8 25.1-11 36.8-1.4 2.9-4 5.8-5.7 8.7-1.2 2-.4 5.7-4.2 5M213 368c-1.2-5.4 3.8-9.3 5.9-13.1 3.5-6.7 2.9-16.6 9.4-21.4A89 89 0 0 1 224 349c-1 2.5-7.3 17-8.3 18.2s-1.5 1-2.8.8m14.9-12.6c3.7-8.8 6.8-19.8 10.7-28.1.5-1 1.4-2.3 2.6-2.6q.2 2-.4 4c-2.2 10-7.9 22.5-12.7 31.3-.3.5-3.1 8-3.7 3.5 0-.4 3-6.8 3.5-8.1M210.3 180c3.4 5 7.4 12 8.4 18-2.8-1-2.9-4.2-4.3-6-1.2-1.5-5.9-4.8-7-6.4-1.5-2.3-5.2-10.3-.4-10.7 1.5 1 1 2.8 1.7 4 .4.5 1.4.7 1.6 1m2.7 163.9c1.5.5 1.5 1.2 1.3 2.5-.9 6.7-6.4 14.2-9.6 20-1 2-1 6.3-4.1 5.5-3.7-1 2.6-7 3-8 1.4-2.5 2.3-5.4 3.9-8.2 2-3.5 6.1-6.7 5.5-11.8m49.7-133.7c-.9 1.2-13.4-14.5-11.2-16.8 1.9-2 3.3 2.7 3.7 3 3.5 3.8 8 8.2 7.5 13.8m-8.8-30.4c.8 4.8 6 7 6.4 12-.5.5-4.7-.6-5.6-1.2-2.4-2-6.8-11.4-.9-10.8zm-34.4 30.4c-1.6.2-2.4-1-3.3-2s-10.4-11.4-6-11.6c2.7-.1 10.6 12 9.3 13.6m-.1-51.1 4 11.1c-.8 1-9.5-6.5-6.8-10.4zm96.3 9.5c1 6.4 5.2 12.3 4 19.3-1.1 0-1.7-2.4-2-3.2-.8-2.8-3.8-12.9-3.6-14.8 0-1.2.7-2.4 1.6-1.2zm-72.9 89.7c-3.5 1.2-7.4 2-7.9-2.7 2.7-4.1 8.4-2.5 7.9 2.7m9.2-41.6c2.8-.8 5.4 7 2.4 8.8-3.6-.4-5.6-8-2.4-8.8M226.7 299c.6 3.5 4.8 5 4 8.8-5 2-6.5-4.5-5.6-8.3l1.6-.4m-3.2-36.9c-1.2 1.4-7.7-7.1-5.7-9.6 4.3.9 6 5.7 5.7 9.6m27.3 6.4c-1.3 0-3.6 0-4.6-1-4.3-4.3 6.2-9.3 4.6 1m4.6-58.3s5.8 7 5 7.9c-2.5 2.4-4-4.4-4.3-4.7-.5-.5-2.4-.2-3-1.4l.4-2c.6 0 1.2-.2 1.8.2zM217.8 178h-3l-2.6-7.2c1.3-1.4 6.5 6.5 5.6 7.2"/>
</svg>
