<svg xmlns="http://www.w3.org/2000/svg" fill="currentColor" viewBox="0 0 469 678" id="nouveau-corner">
  <path d="M431.6 48.3c-4.4-1.2-5 6.3-4.2 9 .6 2.4 1.7-2.9 2.5-3.3 4.7-2.3 7 6.1 7.2 9.3.5 7.8-3 19.3-4.1 27.3-2.8 20.5 4 40.8 3.2 61.8a91 91 0 0 1-13.2 45.2c-16 25.7-49.8 33.2-63 61.6-10.6 23.1-5.2 46.6 2 69.6 9 28.4 20.7 56 30.3 84.1 6.2 18 11.4 36 16.5 54.3.8 2.5 2.4 5.3 2.2 8-.9-1.8-2-4.2-2.5-6-3.7-11.2-6.2-23-9.8-34.3-12.2-38.4-29-75.3-40.6-114a96 96 0 0 1-4.8-43.4c3.3-26.9 21.3-41.2 40.1-57.8 6.6-5.7 16.4-11.7 15.3-21.8 2.7-1 3.6 2.1 5.3.4.9-1 2.9-6.9 3-8.3.4-2.4.5-6.7-1.5-8.4-1.4-1-3.6.6-3.3-2.8.3-3.5 3.3-3.2 5.8-2.5-.4-3.5-3.7-6-7.2-4.9l-.4 1.7c-2.8 1.2-1.3-4.2-3.4-4.7-5.7-1.4-9 9.2-1.3 8.8v-1.7l1.3.2c1 .7-.3 2.7-1.3 3-11.5-.7-6-18 3.4-16.8l-.4-1.5c.4-1.5 4.2-.1 5.2.3 2.2.8 4 2.4 5.8 3.7l-.4-4c2.1-2.3 5.2 2.8 6 4.6a30 30 0 0 1 1.6 9.2c1.4.2 1.5-2.2 1.5-3.3a57 57 0 0 0-6.4-29.3c-.4-.8-3.1-3-3.1-3.2.8-1.6 4 .2 4.6-.2q-.7-1.8-.8-3.6c0-2.8 2-4 1.2-7.2-.3-1-2-2.2-.8-3 2-1.5 5.6 3 6 4.8 2 0 .6-1.9.4-3.2-.3-2.6-1.4-10.6-1-12.6.2-.4 1.1-.1 1-.9-.2-1-1-1.2-1-3 .6-12.7 10-37.9 7-48.4-.4-1.6-1.6-4.1-3.5-4l-2.1 4.1c-1.4.7-3.1-2.5-3.3-3.5-.8-3.7-.2-11.2 5-10.7zm-4.7 84.8c-1.3-.4-.9 1-.7 1.8.5 2.8 2.1 6.4 2.8 9.4 3 13.7 2 26-2.3 39.2-.9 2.5-2.3 5.7-4 7.7-.2-2.9 1.5-5.2 1.4-8.2 0-2.7-1.4-9-2.8-11.5-2.5-4.7-11.2-9.6-16.4-6.4 9.1-.2 14 3 16 12 4.6 21.4-15.4 33.8-28.6 45.8-.4.4-1.2.4-1 1.3.6.6 11.4-8 12.5-8.9 18.7-15.2 29.4-33.1 29.3-58.1 0-8.4-3.5-16.3-6.2-24z"/>
  <path d="M354.3 192.8a18 18 0 0 1-6.4-3.4c-1.9-2.2-3.5-7.9-.3-9.6 1.4-.8 3.6-.5 4.5.8 1.9 2.5-1.9 4.6-2.6 2.2-.3-.9.4-3-.7-2.7-4.3 2.7-1.3 8.8 3 9.7 5.2 1 11.5-2.9 16.9-3.3 15.3-1.4 23.2 12.1 19.1 26-.5 1.7-2.3 4.4-2.4 6q-.1.8.6.6c6.1-7.1 7.4-16 4-24.7-1.7-4-2.6-4.7-6.7-6.4 0-1 5.7-.8 4.7-2.4q-5.5-3.1-9.1-8.5c-.8-1-.6-2.4-2.4-3.1.7-1.1 1.7-.3 2.8-.2 2.3.2.3-1.3-.2-2-2.6-4.6-1.9-5.8-2.6-10.5-.2-1.4-1.6-2.5-1.2-4l2.3-.4c1.3-8.5 7.2-17.4 16.8-16 5 .7 7.3 7.1 4.4 10.8-2.7 3.4-9.4-2-3.6-3.3 1 4.2 4.3 1.6 3.8-1.9-.8-5.5-9.4-5-12.7-2.1-2.4 2-4.4 8-4.2 11 0 .7-.2 1.4.6 1.9.4 0 3.7-1.8 3.6-.3 0 .6-2 .8-2.3 1.6-1.1 2.7 1.8 10 4.4 10.8 2 .6 3.4-5.3 5.7-3.7 1 1.6-2 2.1-1.9 4.4.2 3.4 5 10.1 6.4 13.4 2.2-1 5.2-1.7 6.3 1.1.1 1-1.5.5-2.3 1-.6.4-1 4-1.1 5-.2 2.5.3 6 0 8.8-2.1 16.2-22.2 26.3-32 37.5-20.5 23.6-22.5 48-15.2 77.6.7 2.8 1.9 5.6 2.5 8.5.2.6.7 1.4-.4 1.3-4-9.8-6.8-20.2-7.4-30.8a78 78 0 0 1 19-57.6c7.4-9 19.6-17.1 18.2-30-.4-4.2-4-8.5-8-9.4-2.7-.7-6.2.7-7.3 3.3-.5 1.2 1.1 1 1 2.4-2.8.3-4-3.1-3-5.4 0-.3 2-3.2 2.2-3.4.9-.6 2.9-.7 4-1.4.7-.5-1.8-1-2.2-1-4.2-.2-9.7 8.6-14.6 4.2l2.6-2.3c-2-.3-4.7.3-6.6 0m39.5 17.4c1-3.3 2.6-7 3-10.4 1.4-14.3-11.2-24.3-15.1-37l-1.2-9a12 12 0 0 0-1 7.8c1.9 14.4 16.8 23 16 38.2-.3 3.1-1.3 5.8-1.9 8.7 0 .4-.5 1.9.2 1.7"/>
  <path d="M419.7 266.6c-2 .2-2.7 1.2-4.3 1.8q-7.6 2.7-14.7-.8c-3.1-1.5-6.4-6-3.9-9.3l3-.2c.6 2-1 2.2-1.2 2.6-.5.9 1 3.2 1.6 4 4.2 5 12.4 2.6 16.9-1 1.5-1 7.3-7.6 6.8-9.2-.4-1.3-2.8.3-3.6-1-1.2-4.8 2.9-7.8 4.5-11.2.5-1 1.9-5.5 2-6.5.2-1.5 0-11-.8-11.6-1.7 0-.9.7-.9 1v7.3c0 2.1-4.7 8.8-6.8 10.1-1.4 1-3.4 1.2-4.8 2.3-.6.5-.6 2-1.5 1.1.3-4.4-1-3.5-3.8-4.7-2.8-1.1-3.2-2-6.4-.6-.6-1.8 3.3-2.8 3-4-4.3-2-8.3-4.5-12.7-1.3-1.7 1.3-2.7 2.7-2 5 .6 2 4.3 3.2 3.7-.1 1.6-.3 2 .8 1.7 2.2-3.8 3.2-6.5-.5-6.3-4.5.3-6.5 6.8-10.2 12.7-10 0-1.5.4-6.4 2.3-6.4l1 .6-.7 2c4.8 4.1 10.2-2.5 9.2-7.4-.5-2.2-4.1-5.2 1.3-5.3 6 7.4 5.2 19-5.8 20.6h-4.1c-.6.2-1.2.3-.7 1l3.7.7 3.6-.1c10.2-1.4 11.4-11.7 7.2-19.6-.7-1.3-2.8-3.7-2.5-4.9.5-2 2.2-3.1 4.1-3.3 0-.5-1.2-1.9-.4-2.3 2-.3 3.6-.2 5.1-1.7.8-.8 1.2-2.4 2.3-3.2 1.5-1 4.4-1.1 5.5-2a8 8 0 0 0 2-8h-3.4c.3-4.5 3.3-2.7 4.3.5a13 13 0 0 1-1.8 11.5c-.8 1-2.4 1.1-2 2.7q3.5.3 2.9 3.8h-2.7c-1 2.1-1.8 3-4 3.7-1 .3-2.7-.3-2.7.8 0 1 3.2 5 4 6.2 8 14.4 7 34-6 45-1.7 1.4-3.6 1.2-3.9 3.7.2 0 2.5 0 2.6.2 2.2 6.7 0 17.5-6.7 21-2.7 1.2-5 .9-7.6 1.7-.6.1-.7-.3-.6.8 11.9 3.2 18.8-9.5 17.8-19.7-.2-2.1-1.3-3.9-.8-6.1 1.2-1.3 3 4.1 3.2 5 1.5 5.1 1.7 9.6 2.2 14.7.1 1 .8 1.7.9 2.5 0 1.9-1.5 4.7-1.9 6.6-1.2 5.3-1.7 9.6-3.8 14.8-1 2.4-3.5 5-3.4 8a53 53 0 0 0 7.2-49c-.6-1.5-1.8-2.5-2-4.1.9-1.2 1.4 0 1.9.8 8.3 13.1 5.8 33.3 2.6 47.7-2.1 10-9.8 31.5-5 40.6 2.5 4.6 3-1 4.2-2.4 1.5-2.1 4-1.6 4.4 1 .5 3.3-1.4 6.6-1.7 9.8-.6 7.1 3.5 15.1.1 22-.8 1.6-1.8 3.1-3.7 2l-.2-1.4c4 1.7 3.6-6.8 2.4-6.7l-1.3.8c-1.7-.2-.5-1.9-.6-3.2-.5-9.7.5-8.4 3.2-16.6.5-1.5 2-7.6 0-7.8-3.2-.2-2.4 5.3-5.2 5.6-1.3.1-3.7-3.5-4.2-4.7a36 36 0 0 1-1.9-18.8c.5-4.1 2-8 2.5-12.2q-.8-.1-1.5.4c-2.1 1.4-5 5-7 6.8a28 28 0 0 1 2.2-12.2c-.3-.4-6.2 2.7-3.9-1.1 1.7-2.8 2.1-4.5 3.5-7.1 2.4-4.4 6.8-8.1 8.8-12.5q2-4 1.7-8.6c-1.7 1.1-1.8 3.4-2.8 5.4-1.6 2.8-4.7 7.5-8.2 7.7-.2-1.6.6-2.8 1.3-4.2-4.6.6-10 3.5-14.2 0-.3-1.7 3.3-.8 2.8-2-1-1.3-2.8-1.4-4-2.2-4-2.7-6.7-10-3.4-14 2.2-2.7 6.9-3.2 6.5 1.2-1.2.2-1-1.2-2-1.5-3.8-.7-4.6 6-2.7 8.6 2 2.6 9 2.1 11 0 1.5-1.5-.7-2-1.4-2.8a5 5 0 0 1-.6-4.7c1.4-.4 1 .9 2 1.1 4.3 1.1 6.6-2.2 7.2-6 .2-1.8-.1-3.6 0-5.3m1.7-59.4c2.3 1.4 7.7-1.4 7.2-4-.4-1.7-3.2 1.6-3.7 1.8-.5.3-4.4 1.3-3.5 2.2m4.2 45.8a45 45 0 0 0 5.6-18c.1-3.5-.7-8.3-2.2-11.5-.4-1-6.3-10.4-7.6-9 2.7 5.7 7 11 7.6 17.5.2 2 .3 5.7 0 7.6-.5 4-3.3 8.8-4.1 12.8zm33.6 336.6c1.7 6.2 3.1 12 2.5 18.5-2 22.6-21 41.8-44.5 37-3.3-.7-11.4-3.3-7.8-7.6 1.2-.1.2 1.4.6 2.4 1.1 2.6 10 1.4 11 .2 1.3-1.2-3-1-3.3-2s2.3-1.5 2.9-1.7c9-2.6 16.5 2.4 25.5-4.2.6-.5 2.5-2 1.9-2.7-6.1 2.4-13.2 4.9-19.5 1.2-2.1-1.2-6-6.3-1.9-6.7 0 1.3-.4 2.7.9 3.5 1 .7 6 2.1 5.9-.2l-1.7-.4c0-3.4 5.2-1.7 7.4-1.6 3.3 0 11-2.6 13.6-4.7a23 23 0 0 0 7.3-14.4c0-.6.4-1-.6-.9-.8.4-2 4.6-2.6 5.8-4.8 7.9-11.5 12.4-20.9 9.7-1.3-.4-3-1.6-3.8-1.8s-2.4 1.6-2.1 0c.3-2.2 2.9-2.4 3-3a10 10 0 0 1-1.7-4.6c-.1-1.6.3-5.8 2.5-4.9q-.4 2.9 1.7 4.4c4.2 2.6 1.8-2.5 4.5-4 1.5-.3 1.4 2 3 2.2 4 .5 8.5-4.6 9-8.3.2-1.4-.4-5.7 1.5-6.1 2-.4 1.6 5.6 1.5 6.5-1 6.5-5.8 12.8-12.4 14.4-1.8.4-5-1.2-3.8 1.1 3.8.8 6.4.2 9.7-1.6 5.1-2.8 9-9.7 9-15.6 0-1.6-1.4-6.2-1.1-7 .1-.6 2-3.7 2.9-3zm-90.8-173.1c2.2 1.6 5.1 5.9 6.7 8.3 5.6 8.7 9.1 18.3 12.7 28l.6.4.9-5.1c.6-.7 1.5 4.4 1.6 5 1 6.9.7 13.9 1.3 20.8l2.2-1.7c-.2.9.3 1.7.4 2.4 0 15.8-2.1 33.8-5 49.3-1 5.8-2.1 13.9-4.3 19.4-.2.5-.5 1.6-1.1 1.8-3.4-.4-2-1.4-1.6-3.2a162 162 0 0 0 4.4-44.9c-.3-5 .2-10.3-1.4-15.1-.4-1.1-3-5.7-2.9-6 .3-1.3 3 .1 3.4-.2a62 62 0 0 0-5-18.6c-.6-1.4-2.3-3.4-2.6-4.6q-.3-.8.7-.6c1.1.2 2.3 2.2 3.3 3l1-.7q-.5-3.2-1.5-6.4l-3.2-9.2c-1.9-5-8.8-19.6-13.4-21.7-.5-.2-1.7.4-2-.9-1-3.2 3.8-.2 4.8.5m18.4 40.5-.5-1.7h-.4l-.4 1.7zM358.4 220c-4.5 5.2-11.7 15.4-12.4 22.2 0 .4-.3 1.6.4 1.5q.4-2.2 1.2-4.1a62 62 0 0 1 20.5-25.3q3.4-2.4 7.6-2.8l-1.3 2.5c2.4.7 5.8.2 5.9 3.6-.4 1.4-3.6-.1-4.8-.2-10.7-.8-22.3 13.3-26.2 22.2-9.8 22.1-6.5 47.4-.1 69.8 14.9 52.3 40 100.8 55.5 153 1.7 5.9 4.5 14.5 5.6 20.3l.1 2.2c-1.5-1.9-2.4-5-3.2-7.2-2.5-7.9-4.2-16.2-6.8-24.2-12.9-41-31.1-79.2-45-119.7-9.8-28.2-18.4-56.4-12-86.5 3.7-17.4 16-36.6 32.8-43.5l4.4-1.5c2.3-.3 3.6 2.6 1.8 3.5-.8.4-2.4.4-3.5.7-8.8 3-14.3 6.8-20.5 13.6M374 601c.4.4-5.8 5.6-6.3 6.2q-1 .4-1 1.4c.6.5 8.4-6.6 9.4-7 1.6-.6 2 .5 1 1.5a261 261 0 0 1-27.4 18.3q-6 3.1-12.1 6c-.3 1 1.5 5 2 6 1.8 3 7.4 9 11.2 8.2 1-.2 1.6-1.5 2.6-.4 2.3 2.3-2.1 6.3-5.3 4.9-.8-.4-5.3-6-6-5.3l3 5.3q-1.4 1.6-3.2.5c-3.1-5.9-4.6-12-6-18.4-.2-1 .3-3.6-1.4-2.9 1 1.6.3 3.3.5 4.7a52 52 0 0 0 4 15.1c.2.7 1.5 3 1.9 3.4 1 1.2 6.1.2 7.8-.1a81 81 0 0 0 45.2-26.5l1.9-2.7c1-2.5-5.6-3.4-7.1-2.9-1.2.4-1.3 2.3-3 1.1-1.5-1-1.2-3-1.1-4.5l1.2-.3c.9-2.6-3.3-1.1-4.4-.6-.7.5-2.7 2.6-3 3.4-.1.5-.6 3.5-.5 4 .2 1.1 2.4 2.1 2 3.6-5.7 1.4-8.2-3-6.2-8.1 1-2.6 6.3-5.5 9-5.8 14-1.9 23.4 12.3 24.3 24.8.2 3-1.5 9.2-3 12-1.7.3.2-2.2.5-3.2 1-4.4.5-11.7-1.6-15.7-1-1.8-2.6-3.3-3.3-5.2q-.5-.7-1.3-.8c-.8 0-7.4 7.2-8.9 8.4a116 116 0 0 1-27.6 17.6l-17.5 6q.1.7.6 1.2a35.4 35.4 0 0 0 52.3 1.6c1-1.1 2-2.9 3-3.9 1.4-1.5 1.6 0 .9 1.4a38 38 0 0 1-19.9 14c-20.6 4.7-38.6-7.6-45.1-27-2.2-6.4-2.2-12.7-3.7-19-.4-1.5-1.9-3.2-.1-3.4l1.5 1.7V618c.8-1.1 2.6 7.5 2.8 8q.3 1 1.4 1c0-2.6 3-2.9 4.8-4q11.7-7.1 22.3-15.4c1-.8 8.2-7.2 9-6.5zm-20.8 47.5-10 1.7c-1 2.3 2.2 1.3 3.6 1 2-.4 5.3-1.2 6.4-2.7m68.6-88.6c1.4.2.3-1 1.9-.9 2.4.2 6.5 3.2 8.3 5 5 4.9 8.6 10.8 8.5 18.1 0 1.4-1.1 3 .2 4 1-.6 1-1.5 1.2-2.6 1.5-10.6-5.4-19.8-14.7-24.1-1.4-.7-3.8-.4-4.1-3 2.1-1.7 17.7 9.6 20 11.5 1.8 1.4 9 8 9.2 9.6.2 1-1.9 6.6-2.5 6.1q-.6-3.1-2.2-5.6c-.6-1-1-2.3-2.5-2 .3 3.5 1.1 6.2.3 9.8-.2 1.1-2 5.6-2.8 6-.5.4-1.3-.2-2.1 0-1.4.4-3 2.8-5 1.5-.6-2.1 1.7-3.2 1.1-5.5-6.1 0-2.7-1.7-1.3-4 2-3.5 1.3-13.2-2.3-15.9-1.4 2.4.5 5.8-2.5 7.6-1.1 0-.2-5.7-1.3-7.1-1.4-1.7-1.5 2.5-3.2 2 .4-3.3-1.6-6.3-4-8.4-1 1-.5 2.6-.7 4a122 122 0 0 1-12 38q-2.8 5-6.3 9.7l-1.9-1.9c1-1.8 2.5-3 3.6-4.9 7.2-12.2 11.3-34.4 12.3-48.6.4-5.7-.2-11.6.1-17.3l.5-2.8c2 0 .8 1.6.8 2.8a168 168 0 0 1-4 41.9c-1.3 5.6-3.7 11.1-4.9 16.8 1-.7 1.6-2.2 2.1-3.2 2.7-5.7 5.2-13.6 6.6-19.8 3-13.5 2.6-27.2 3.7-41 2.6.4.9 3.6.8 5.3-.3 6.3-.1 12.6-.8 18.8m-13.1 42.8.8-2.6c-.7 0-2 2.3-.8 2.6"/>
  <path d="M441.9 595.6a36 36 0 0 1-12.4 5.6 46 46 0 0 1-17 1.9c-.6-3.7 2.9-2.8 5.3-3.8 2.3-.9 5.4-3.7 4.9-6.4 2.4-1 3 2.3 4 2.5.5.1 1.6-.7 2.5-.8 2-.2 4.1.3 5 2.3 0 1.2-2.2.6-2.6 1.1-.2.4-.3 1.3.6 1.3 1 0 5.4-2.2 6.6-2.8 8-4.2 18.6-15.6 16.8-25.3-.3-1.4-2-4-.2-4 1.3-.1 2.2 1.2 2.5 2.4 2.5-.3.7-5.8 0-7.4a10 10 0 0 0-8.4-5.7c-2 0-3 1-4.8 1.3 1.7-5-5.1-1.6-7.2-5 2-1 4.9-.9 6.4-2.9-1.6-.3-3.9-1.4-1.7-3 2.3-1.5 10.8-1 13.1 1.1-1.2-4.4-6.3-5.8-10.4-5.5-4 .3-6.1 3.9-10.7 3-.3-.7.6-3.2-.7-3l-3.9 3.2 1.2 3.2c-4.1 0-1.3-6 .1-7.7 6-6.7 18.8-3 24.4 2.8 11.7 12 6.7 34.2-4.3 45-2.9 2.8-5.9 4.5-9 6.5m17.2-38.3a12 12 0 0 0-11.9-7.2c-.2 1.3.4.7 1 1q1.8.3 3.5 1.2z"/>
  <path d="m465.8 455.3-.3 8.8 1.2.2-2.8 5.7c-1.8.6-2.8-2-3.1-3.4-1.4-1-3.8 5.1-3.8 6.1l2.7 1.5c1 1.4-2.2 4.5-2.4 6.1-3 3.7-7.6 10.8-8.4 15.4-.1.6-.3 1.2.6 1 1.3-.9 2.3-3.5 3.8-3.8 1.6-.3-.2 2.5.2 3q1.4 0 2.6-.2c1.9-.6 2.5-3.2 4.2-3.7-.9 4-4.1 6.7-5.8 10-.1 1.7 3.8.1 2.6 3-.3.9-1.9 1.1-2.7 1.7-3.7 2.7-8.3 4.7-11 8.4-.5.6-3.7 6-3.8 6.4-.6 1.9 3.1-1.4 3.4-1.6 2.7-1.4 8.5-2.5 11-.5-2.4 3 1.2 3 2.7 4.6 1.5 1.4 3.4 5.8 1.7 7.4-1.1-.6-1-2.6-1.6-3.3-.6-.5-4.7-2.4-5.4-1.8l1.1 2.8-1 1c-3.2-3.4-11.6-3.6-15.5-1.6-4.3 2.2-8 12.5-11 16.5-1-.7-.6-.7-.2-1.4 1.7-3.4 4-6.5 5.9-9.8a239 239 0 0 0 16.7-39.3c2.5-7.4 4-15.5 7.3-22.7 1.6-3.6 4.3-10.5 9-6.5q1.5-5.4 0-10.6l2 .5m-9.2 20.7-2.2-.5v1.3c.9-.6 2.5.6 2.2-.8m-1.3 4.2-.7-1.7q-2 1.7.7 1.7m-6.8 42c-2.2-.3-4-.4-6 .6-.6.3-1 0-.8 1 .3.3 4.3-1 5.1-1 1.1-.3 2 .8 1.7-.7M371 484l.9-.2c.2-.9.5-2 1.6-1.9.6 1.8-.2 3.5 0 5.3.5 3 1.9 7 2.4 10.3q.6 3.8 1 7.7c2 .4.4-3.3 2.1-3 1.4 14-.2 28.7-3.1 42.4a46 46 0 0 1-5 14q-1.6 1-2.8-.3a96 96 0 0 0 4-44.7c-.3-1.6-2.8-7-2.8-7.4.2-1.2 2.3.6 3 .2.3-.3-.9-5-1.1-5.8-.7-2.4-2.4-7.2-3.5-9.3-.6-1.3-2.5-2.3-3-3.4-1-2.7 3.6 1.4 3.8 1.2a43 43 0 0 0-6.6-17c-.7.4-.5.9-.6 1.5-1 5.8.4 17.3 4.5 21.8 1.2 1.3 3.8 1.7 3 4.3-7.8-5.2-9.7-17.5-9.2-26.1 0-1.3 1-3 .8-3.7-.1-.6-2.2-3-2.7-3.3-1.3-.8-3.4.2-3.2-1.9.1-1.3 1.2-1.2 2.2-.9 1.4.5 5.6 5 6.6 6.5 3 4 6 9.2 7.7 13.7m27.5-104.3c.6 0 1-1.2 1-1.7.4-1-.2-2.4 1.1-2l3.4 22 1.3-2.1c1-.4 1.1.8 1.1 1.5 0 13.7 3.8 28 2.7 42 0 .7.1 1.3-.6 1.8l-5.1-13.6c-.8-3.8-.8-7.7-1.7-11.4-1.3-5.6-4.2-11-5.3-16.6l2.1.9c1-1-6.7-17.1-8.8-19l.1-1.8 3.6 2.1c1.2-1.3-6.4-19.8-7.6-22.6-1.4-3-3.7-5.7-4.2-9h1.3a137 137 0 0 1 15.6 29.5M127.7 609.6a190 190 0 0 0 34.8 20.5c3.3 1.5 8.3 2.6 11.4 4.3.8.4.6.4.6 1.3q-18.5-6.5-35.1-16.8a120 120 0 0 1-25.3-19.6c-1-1.3-1.5-4.1-4.2-3.7s-2.1 6.7-2 9c1.2 14 8.2 26.4 7.7 41.1l-.5 2.3 3.2-.4c10.8.3 23.9 5.7 35.2 5.1 1.6.2 3.5.8 5 .9 6.1.4 26 1.3 30.1-3 .5-.5.7-2.5 1.3-2.5 1 0 .1 2.7-.2 3.2-1.3 2-3.7 2-5.6 2.4-16.8 4.3-38.5 0-55.6-2.7-4.4-.7-8.7-1.9-13.2-2l-.6.2c-.8 1-2.4 3.2-3.4 3.7-1.2.6-3.3.6-4.8 1.2-4.3 1.9-2.6 9 2.2 5.9 1.3 7.1-5.6 5.5-6-.7 0-1.6 1.2-6.4 2.2-7.6 2.4-2.6 6.5-4.1 8.1-8.4.5-1.2 1-4.6-.9-4.5-.4 1.4-.8 5-2.5 5.3q-.7-.2-1.8-.2c-.6.2-.9 1-1.6.8-1-3.2-.9-5.4 0-8.6.4-1 2.5-4.9 2.5-5.2 0-1.3-2.3.9-3 .2.2-1.6 1.2-3 1.5-4.6 2.2-9-2.7-20.7-.4-29.7 1-3.6 5-3.4 7-.6 1.4 2.3 1.3 3 3.6 5.3 3 2.9 6.8 5.7 10.2 8.2"/>
  <path d="M370.1 312.4c1-.2 1.6.8 1.7 1.7l1.1-.4c.7-1.1-2.3-6.2-2.4-8.3 0-2.4 1.8-5.4 2-7.4 0-1.1-1.3-3 .4-3 1 0 2.5 2.3 2.8 3.4 2 0 1.3-3.2 1-4.6-1.1-4.3-4-4.8-2.7-10.8 1-4.2 5 0 3.3 1.6-.7.8-2.5-.3-2.5 1.3 0 2.7 3.3 2.7 4.6 4.8 4.5 7.7-3.5 20.7-4.6 29.1-2.2 16 4 35.8 8.6 51.2 7.6 25.2 16.8 50 23.8 75.3 1.6 5.8 2.5 12.6 4.3 18.2.5 1.6 3.1 4 1.2 6q-.7-.6-.8-1.7c-5.7-16.2-9.7-34.4-14.8-51-7.8-25.4-16.7-50.2-23-76.1-1.6-6.4-4-12-4-18.9 0-3.6 1-6.8 0-10.4m-2.9 237.3-.4 1.5a91 91 0 0 0-19.2 7.5 163 163 0 0 0-41.2 33q-3.3 3.5-7 6.6c0 1.4 1.6 0 2.2-.5 1.5-1.2 3.3-3.5 4.8-4.8 17.5-15.7 35.5-32.2 58.7-38.9 1.2-.3 2 1 1.1 1.9-.5.4-7.4 2-9 2.6-32.7 11.6-52.3 43.4-82.5 59.8a132 132 0 0 1-89.3 13.4c-1-.2-2.3-1.6-3.2-.6-.7.7-.5 2.8-1.8 3.3-.4-3.4 3.9-7.4 6.8-8.3 2.6-.8 6.4-.3 9 .7.9.4 7 3.3 5.8 4.6-2.5 1-2.9-1-4.8-2.2-4.1-2.6-10.6-3.4-13.8 1q7.8 1.6 15.8 2.5a128 128 0 0 0 62.8-10.1c33.7-14.9 54.5-50 87.3-66.1 3.8-1.8 12-5.7 15.8-6.7q1-.3 2.1-.2"/>
  <path d="M396 545q0-1 .3-2c1.6-4 4.8-8.4 6.7-12.4 27.1-58.7 26.7-125.4 9.3-187C404 315 393.3 287 383 259c-.7-2 1.4-4.5 2.6-1.7 15.3 45.8 33.2 92 38.3 140.5 5 46.9-.9 97.6-23 139.7-1.4 2.5-3 5.7-5 7.6M107.9 646c.2.3.2 1.6-.2 1.6-4.4-.1-8.7-1.2-13-1.7-26.7-2.9-61.3-5.8-87 1.6-2.8.8-7.8 2.9-6 6.3 3.4 2.5 5.5-.6 8.3-1 3-.5 3.4 2.8 1.6 4.5-1.2.6-.4-2 .1-2.3-2.3-2.6-4.6 1.2-8 .6-5.8-.9-3.8-7-.5-9.7 2.2-1.8 7.6-2.4 8.9-4.2.8-1.3-1.7-.9-1.1-2.6 4.6-.7 8.2-1.2 12.9-.8 12 1 24 .7 36 1.7 14.8 1.2 29.4 3.9 44.1 5.5.9 0 3.3-.6 4 .5z"/>
  <path d="m417 252.7 2.3 3.9q.3.9-.7.7c-1.8-.1-2-1.8-3.1-2.8a40 40 0 0 0-8.3-4.5q-2.3-.9-4.9-.8l10.6 5.3c1.5 1.5 3.7 3 3.9 5.3a28 28 0 0 0-15.2-8.8c-15.4-3.4-31 7.6-35.9 22-10.1 29.8 5.3 64.5 12.8 93.1.2.6.5 1.6-.5 1.4a19 19 0 0 1-2.1-4.3c-8-21-16.2-52.3-15-74.8 1.3-27.3 21-50.6 50-39a32 32 0 0 1 6.1 3.4"/>
  <path d="M374 264.4q1.9 6.4 4.6 12.6c8.4 19.6 17.6 38.6 24.6 58.9a310 310 0 0 1 18.2 95.3c.6 32.4-5.5 66-18.4 95.6-.6-.3 0-1.1.1-1.6.7-2.3 2-4.6 2.7-7a251 251 0 0 0 13.5-106.4c-4.4-45.3-19.4-82.2-37.6-123-2.4-5.4-6-11-8-16.2-.5-1-2-5-1.9-5.8 0-1.1 1-2.8 2.2-2.4m-91.1 406.1-5.2-3.5c-8.4-3.5-15-9.2-22.8-14.1l-.8-2c2-.2 3.3.3 5 1.3 1.4.8 2.4 2.4 3.5 3.2 4.7 3.3 13 7.4 18.8 7.9 2.6.2 4.9-.5 7.4-.5a6 6 0 0 1-3.5 4.2c-.6.1-.3.6-.1 1 1 1.2 10.8 4.3 12.7 4.5 4.3.5 15.2-1 16.3-6.2.2-1.4-1-2.2-.9-3.2 0-.4 1.4 0 1-1.1l-3.9.8v-1.4l4.6-1c6 6.1-3.5 12.2-8.8 13.7-9.2 2.5-17 .9-25.7-2l-.5 1c.8 1-.5 4.6-2 4.1-1-.3-.6-2.5-.8-3.4-.7-2.3-8.5-5.9-10.8-7.4a134 134 0 0 1-16-13.3c-.5-.8-.8-1.1-.6-2.1 1-.2 1.8.5 2.5 1 2.5 1.8 4.8 4.4 7.3 6.3a71 71 0 0 0 18.9 11.2zm161.4-312.8c-.3 2.7-1.5 5-1.7 7.8s-.3 9.2 3.6 9.2c4.3 0 2.3-6.4 5.7-8.7 2.5-1.8 7.7 1 8.7 3.5l1 4.1c0 .5-1.7 4.5-2 5-.8.9-2.5 1.2-2.5 3.1 0 .6 1.8 3.4 2.2 4.4 2 5 .2 14.5-6.5 14.4-1.2-2.7 1-6.9-2.8-7.6-.8-.2-3.4 0-4 .5l-.5 1.3c-11.4 13.3-3.3 31.2-1.3 46.3 2.6 19.7 2.5 41.9-3.5 60.9-.1.5-.5 2-1 2 .5-3.8 1.7-7.5 2.3-11.3 2-11.8 2.2-24.5 1-36.4-1.6-15.6-11.2-49.9 1-62q3.3-3.4 7.6-1.6c3 1.3.5 4.2 1.6 6.6 4.5.1 5.5-8.6 5-12-.2-1.3-1.3-2.7-1.5-4-1-5 2.2-5.8 2.4-10 .1-2-.8-5.8-3.2-6.2-6-.9-5.1 6.8-7.8 9.5s-5.1-.7-5.8-3.5a28 28 0 0 1 1-14.4c.3-.7-.2-1.1 1-1zM385.8 651l2.1-.4c-.3 3.5-3.7 5.4-5.9 7.6 5.7 0 9.7-6 12.1-10.6 4.2 1 2.6 3.3.6 5.7-9.6 12.3-29.5 13.2-41.9 4.7-.9-.6-5.6-4-4-4.9 2.8-1.2 2.9.6 4.5 1.4 1.7.9 8.3 1.6 10.3 1.7 4.8 0 12.1-5.2 13.8-9.8h1.2l.9 1.9 1 .1 3.9-4.1c3.5 1.5 1.6 3.9 1.4 6.7m-2.5-.4c-.7-.6-1.1.3-1.4.5-2.4 2-4.8 4.1-7.6 5.5-4.4 2.2-7 2-11.5 2.5-.7 0-1.3.2-.7.8 3.8 1 11.2.4 14.4-1.9q.7-.7 1-1.3c.6-.5 6.8-5.2 5.8-6zm31.7-95c0 1.7.3 3.4-.3 5-.3.9-1.4 1.5-2 2.3-3.2 4.8-7.5 12.9-13.2 14.7q-1.2.2-2.3 0l1 2.6c1.2.3 1.4-3 2.8-1l-2.5 2.6.9 3.7c.1 2 .2 8-2.6 7.9 1-2.6 1.2-4.4 0-7.1-.6-1.7-2.5-2.7-3.8-4.1-.6-.7-1.4-3.5-2.2-1.8-.3.5-1.6 3.1-1.6 3.5-.4 1.8 2.5-1.6 2.1.6-2.4.3-3 3.6-5 4.7.4-2.2 4-3.2.3-4.5 0-.6 1.1-1.3 1.2-2.1.6-5-7.4-10.5-11.1-13-.4-3.2 1.7-4 4.6-2.8.9.3 7.5 4.7 8.5 5.5.8.6 1.7 3.2 2.8 1.8a40 40 0 0 0-6.2-6.1c-1.4-1-5.8-3.2-6.5-4q-.7-1.1-.4-2.4c6.4.1 11.6 4 15.9 8.5 1.8 1.9 2.6 4.6 5.8 5 .8-1.3 2.2-1.5 3-2.4 1.6-1.7 5.7-8.3 7-10.5 1-1.9 1.6-4.3 2.9-6 .2-.3 0-.7 1-.5M32.6 636.6c-.4-1.7 4.5-2.9 3.4-4.2-.8-1-11.4-.9-13.2 0-1.5-1.4 5.6-3 6.2-3 4.2-.5 9.2.2 13.5.8l.6-.6-.2-1.9 1.7-.7c1.8 1.8 5.1 2.6 7.7 3.2 14.3 3.7 29 6.2 43.5 9.5 1.5.4 4.3 1 5.7 1.5 3.7 1.3-.7 2-2.5 1.7-7.2-1-14.7-3.1-22-4.3-13.9-2-27-3-40.9-2.4-1.2 0-2.3.6-3.5.4"/>
  <path d="M392.6 543.3q5-12.2 9.4-24.6 3.6-9.7 6.6-19.8c16.8-61.4 4.3-125.1-24.7-180.6-1.5-3-4.5-5.8-4-9.4l1.9.5c2.5 6 6.2 11.5 8.9 17.3 21.7 47.2 33 105.2 22.6 156.6-3.3 15.8-11.4 45.3-19.4 59-.3.6-.3 1.3-1.3 1m-136.8 79.3v1.3l-1.8-.1c-1.5-.4-5.9-3.1-8-4q-10.6-4.4-22-5.2c1 1.9 3.7 1.4 5.5 2 4.9 1.5 15.3 5 19 8.3.1.1 1 1.4-.1 1.1a91 91 0 0 0-31-11.3c-.6-.1-9.1-1.1-7 .7a78 78 0 0 1 32 11.2c.3.5.6 1-.4.7-.6-.2-2.4-1.6-3.4-2-10.3-5.1-26.1-10.9-37.6-9.4-2.2.3-5.7.9-7 3q2.6-.9 5.3-1.3c9.9-1.2 18.8 1 27.8 5.1 2.2 1 7.6 3.7 9.4 5 .7.6.8.8.7 1.7-.6.6-9.5-5.1-11-5.8-13.3-6.3-28.6-8.2-41.3.8-5 3.7-9.2 11.8-4.2 17.3 2.7 3 5 1.4 7.7 2.4.7.3 2.7 2 1.1 2.7-.1 0-.7-1.7-1.7-2-3-1-4.2 1-7.5-1.9-5-4.3-4.1-8.7-1.4-14 6.8-12.8 22.3-15.5 35.6-16a86 86 0 0 1 41.3 9.8m-39.2 40.8c.3.2 1 2 1 .4-.7-2.5-2-4.8-2.8-7.3-.6-2-3.3-9.6 1.1-7 2 1 2 3.6 3 5.5s2.4 4.4 3.6 6.1c.8 1 3.7 3.7 3.8 4.2.5 1.2-1.4 1.8-2.3 1.7q-.2.9.4 1.5c.7 1 5 4.7 6.1 5.3 2.2 1.2 4.7.6 6.9-.4q.4-.6 0-1.3c-.6-1-2.7-1-2.4-1.9 3.5-3.2 5.6.8 3.3 4.1-2.3 3.4-8.2 1.4-11.4.2-2.5-.9-4.2-2.3-6.5-3.3l-1.9 2.4c-2.2.4-1.4-2.4-2-3.6-.4-1.1-2.5-2.1-3.3-3-.8-1-3.3-6-3.7-7.3a45 45 0 0 1-1.6-11l2.6.2c1.6 5.1 2.3 10.5 6.2 14.4m227.6-525.2V176l.4 2.3c4-1 5.6 3.2 3 5.8-1 1-2.6-.3-3 2.5-.8 6 .1 15.6 0 22-.3 39.7-1.8 79.9-1.4 119.6 0 5.7-.7 11.6.2 17.3.3 2 2.3 3.4.2 5.3-.6.5-1.9.8-2 1.1-.2.8 1.7 1 2.3 2 .3.5 1.2 3.2.5 3.3l-2.3-3.5c-.5-.7-1.3-.4-1.3-1.8 0-1.9 1.5-1.2 2-1.9 1-1.4-.6-3.1-.7-4.4-.5-3.3 0-8.3 0-11.9-1.2-36.1.5-72.4 1.3-108.5.2-12.6-.6-26.7.4-39 .3-4.4 1.5-2.4 3-3.4.6-.4.4-2.3.3-3.1l-3.3-.1-.5-1.9.2-39zM351 568c-.7.8 2.6 1.6 3 1.9.6.3 2.8 2.4 2.1 3.1-2.3-.7-4.7-2-7.2-1.3l.5 3.4c-3.2-1.5-5-1.2-8.3-.4-11.5 3-21.1 13-30.7 19.5-.6-.6 4-3.8 4.5-4.4 12.4-12 28.6-24.3 45.8-28.1 1.9-.4 10.8-2.3 11.8-1 .6 1.3-1.3 5.3-2.4 5.7-.6.3-3.3-.6-4.4-.6-5-.2-10 0-14.6 2.1"/>
  <path d="m390.4 543.2-2 .6v-1.5c.9-5.7 4-13.7 5.6-19.8 2.7-11.2 5.1-23.1 6.6-34.5.6-4.9.4-10.6 1.3-15.2.2-.8.3-2 1.3-2.4l3 10.5c-3.6 21-8.4 42.2-15.9 62.3M75 623.9c.2-.3-2.7-3.5-.7-3 1.5.4 4 2.4 5.6 3.3l8.7 4q7.6 3.5 15.5 6l.3.5c-.3.6-.1 1.8-.5 2.3-.6 1-6.2-.6-7.5-1-10.9-2.8-22.3-7.8-33.6-8.7-1.1 0-2.6 1.1-3.1-.5q2.4-.8 4.9-1.2c1.2 0 3.8 1.4 4-.9-5.4-1-10.8-4.2-16.1-1.7-.3-1.2.8-2.2 2-2.4 6.5-1.5 14.1 1.9 20.4 3.3m167.3 37.7c1.4-1.6-7.5-9.2-8-10.8q-.3-.9.6-.6c5.7.3 8.4 7 12.7 9.7q2.4 1.5 5.3 1.7c-1 2-2.7 1.5-4.4 1.7-1.4.2.1 2 .6 2.8 3 4 9.6 9.9 14.6 10.4l4.4-.3c2.2-1 .6-2 .5-3.6 1-1.3 6.5 2.6 1.8 4.6-7.1 3-16.5-2.7-22.1-7-2.5-1.8-4.8-4.3-7-6.5l-1 .7c0 .2 1 3.4-.3 2.7-1-2.8-3.4-3.1-5.2-4.9-2.8-2.6-4.7-8.2-6.9-11.4l.7-1c.8.4 1.7.3 2.6.8 2 1.2 7 8 9.7 10.2.4.4.7 1 1.5.8M357 593c-3.7-.3-8-1.6-11.6-1.8a61 61 0 0 0-26.5 5.3q-1.4.7-2.5 1.7c3.6.3 7.1-.5 10.7-.2 7.5.6 16 4.7 22.3 8.7.5.4 7 4.3 6 5.3l-14.8-8.8a42 42 0 0 0-13.9-4c-4.5-.4-10.9-.6-14.6 2.4 0 .9 5.3.6 6.4.8 3.2.6 9.4 5.3 11 8.1 1 2 .1 3.9-1.4 1.8-2.3-3.3-3.8-6.5-8.1-8-5.5-1.8-15.2-.7-15.1 6.6 0 1.2 1.8 2.6 2.8 2.6 1.1 0 4.5-3.2 5.2-.4.3 1.2-4.3 5-5.4 5.8a55 55 0 0 1-17.7 7.4c-3.8.2-8.4-4-3-5.4 0 1.8-.6 4.2 1.8 4.3a37 37 0 0 0 13.2-4.2 46 46 0 0 0 7-4.6q.6-.6.4-1.4c-6 0-6-5.1-3.8-9.5 6.4-12.7 36-17.5 48.8-14.6 1 .2 3 .7 2.8 2m-227 39.5-.4-2.8c1.8-.6 2.6 2.7 4.3 4.2 8.1 7.5 29 13.5 40 14.6 1.3.2 2.9-.1 4.2 0 .6.1 1.3.4.6.9-5.8.5-11.3-.3-17-1.4-8.7-1.7-18.1-4.5-26.5-7.4-6-2-12.2-5.8-18.7-6-1.6-1.3 5.5-1.7 5.9-2-1.5-2.9-8.3-1.9-6.8-5.3zM462 585c.7.4 2.8 6.4 3.7 7.4 10.6 40.6-25.9 73-65.2 56a74 74 0 0 1-17.7-10.7c2-.4 3.9 2.1 5.4 3a57 57 0 0 0 45.1 9 44.8 44.8 0 0 0 27.5-64.6z"/>
  <path d="M182 640.4c2.4.3 5 1.5 7.2 2 46.2 9.7 95.2 8.4 138.5-12l2.2.5c.1.6-.7 1-1.2 1.4-2 1.1-8.6 3.3-11.3 4.3a225 225 0 0 1-124 7.5c-2.5-.6-6.4-1.3-8.9-2.1-.8-.3-2-.7-2.4-1.6m277.7-100.3c11.5 13.7 7.8 36.1-3.5 49a48 48 0 0 1-26.6 15.8c-3.1.7-16.8 2.7-19 1.4q-.5-.4-.4-1c2-.7 4 .2 5.7.2 26.6-.5 55.1-21 49-50.4-3.4-15.5-13.2-21.5-27.8-24-.7-.2-1.6.4-1.4-.7 1.6-1.2 4.9-.4 6.8 0a29 29 0 0 1 17.1 9.7m-35.3-6.1c-.6-.6 3.5-9.2 4-10.6 6.4-18.6 11.2-45.8-.5-63.1-1.5-2.2-3.3-1.9-2.3-5.4.1-.6-.3-1.2.7-1 3.9 4.2 7 9.3 8.4 14.9a88 88 0 0 1-6 57.5c-.8 1.7-2.2 5.4-3 6.8q-.3 1-1.3 1"/>
  <path d="M429.9 528.5c-.8.1-.4-.9-.2-1.3l4.3-11.3c8.4-26.5 8.3-50-6.1-74.2-.3-.5-1-.6-1.1-1-.4-1-.7-3 .3-3.7 1.2 0 4.7 5.6 5.5 6.8 14.8 25.2 8.3 59.3-2.7 84.7M364 327c.1.3.8 0 .6.4l-1.2.6c-.2-1.7-1.4-3.1-2-4.6-8.8-25.6-9-62.6 15.4-79.6 1.6-1.2 8.4-5.6 9.7-3 1 1.8-3.5 2.2-5.2 2.8-22.2 9-26 41-22.8 61.6.6 3.4 3.9 19.7 5.4 21.9"/>
  <path d="M463.3 438.2c-.4 1.5-2.2 2.3-3 3.5-5.3 7.2-8.5 30.6-11 40.3q-4.8 17.4-11.3 34l-7.3 14.2c2-6.2 5.5-11.8 7.8-17.8 3.5-8.8 6.4-19.1 8.6-28.3 3-12.8 5-32 12.2-42.9.8-1.1 2.5-3.3 4-3M253.2 641.7l-1.6 1.7c1.7.2 4.3-1.4 5.9-.2.1.9-2.2 1-2.8 1-19.8 2-44.3 1-63.8-3.5-2-.4-7-1.6-8.6-2.4q-1.1-.1-1-1.3c23.4 6 48 9 72 4.7m157.5-88.6-4.7-.4c-.4 1.5 2.4 1 2.6 1.2l-.2 1.3-.9.5c-3.6-.2-7.5-1.8-11-2.2a136 136 0 0 0-11.8-.4c-2 0-5.4 1-7.2.8-1.6 0-1.8-1.6-.3-2.4.9-.4 4.5-.8 5.8-1q13.4-1.3 26.7 1.4 1.2 0 1 1.2m-7.6-.4c-.4-1.1-1.6-.9-2.6-.9.3 1.1 1.6.9 2.6.9m-35.6 40.7c-.1-.8 1-.5 1.4-.4 2 .2 3.9 1.1 5.7 1.5 6 1.2 19.5 3.8 24.8 1.7 1.2-.5 2.6-3.6 3.9-.7.7 1.6-.3 3-1.5 4 1 1.2 3.3 0 3 2.1-.4 1.3-5 .3-6 .2-7.7-1.3-18-4.1-25.5-6.4-1.8-.6-3.7-1.9-5.8-2M343 171.6a41 41 0 0 0-.5 22.8c2 8.6 6.8 16.2 9.2 24.3.4 1 1 2.7.4 3.8l-1.2.8c-1 .2-.6-.3-.8-1-1.6-4.3-3.6-8.5-5-13-2.9-9-7-28.1-3.4-36.6q.3-1.2 1.3-1m20 218.7c-2.5 2.6 2.2 9.3 4.1 11.2 3.8 3.5 15.4 7.1 17 9.7q.6.7.4 1.5-1.5 0-3-.6a78 78 0 0 1-16-9.8 28 28 0 0 1-4.5-7.8c-.7-3.5 1.5-10 6-6.8 3 2.1.5 6.7-1.4 2.2zm7 185.4c-3.5 4-6.7 9.5-10.4 13.1-1 1-1.6 1.9-2.1 0q10.5-12 18-26.5c1.2-2.4 1.4-6.4 4.6-6.8l.6 1zm-32.9 77.3v1.3c-1.4-.3-2.7.3-4 .4a165 165 0 0 1-43-1.8 56 56 0 0 1-12.7-3.5c0-.8 1.2-.4 1.6-.3 8 1.2 16.1 4.5 24.5 4.8l4-.4c-6.4-1.5-12.9-2.4-19-4.5-.5-.1-3.9-1.1-3-1.9q3 1.1 6.2 2c11.2 2.9 21.7 5.5 33.3 4.8 4-.3 8-1 12.1-.9m22.3-130.3c6.7 5.6 5.6 17 5.6 25l-1.4 1.5c.4-7.7 1.3-21.7-6-26.6-3.8-2.6-12.2-2.8-12.3 3.1 0 4.5 8.6 5.8 6.3-.3 3.9.3 1.9 5-1.2 5.5-5.8.8-8-5.5-4.3-9.4 3.6-4 9.7-2 13.3 1.2m99.7 120.6c4.1-.9 7.8-.8 8.4 4.2l.5-1.5.8-.2c.7 2.3-.6 2.4-1.1 3.1-.6 1-.2 3.6-2.7 3.3-.3-.3 2.8-4.6-1-4.3-2 .2-2 1.6-4.8.1-6-3.2 2-12.2 3.7-16l3-7.4c-.3 2.7-1.6 6-2.8 8.5-1.5 3.2-4.8 6.3-4 10.2m-59.9-13.9c.5.6 1.7 4.8 1.8 5.7.4 3 .4 11-4.4 7.8-.6-1 .1-3.4-.3-4.8s-3.9-2.4-.5-3.7l3.6.2c-1-1.9-3-4.8-5.5-3.6-.7-4.2 3.3-4.1 5.3-1.6m-237.9 19.8c-.7 1.4-3.6.2-5 0-9.4-.9-19.6-2.9-29-5.2-3-.8-10.3-1.6-9.2-5.8 14 5.2 28.4 9.7 43.2 11m183.4-42c.5.6-1.4 1.6-1.7 1.9l-5.3 3.6c-13 8.3-27.7 15.5-42 20.8-.3-1.2.3-.7.8-1 13.5-6.5 26.5-11.7 39.2-20.1 1.7-1.2 5.4-4.8 7-5.4.9-.3 1.3.1 2 .3"/>
  <path d="M186.7 648.9c1 .9-3.5 3-4.2 3.2-9.3 2.5-33-.9-43.3-2.5-4.6-.7-15.7-2.2-19.6-3.7-.7-.2-1.2-.3-1-1.2 6.8.6 13.4 3 20.1 4.1 6.8 1.2 15 2 22 2.5 5.7.5 17.6 1.5 23-.6 1.2-.5 1.8-1.6 3-1.8m-62.8-46c2.1 1.4 6.5 4 8.1 5.4.4.3.3 1.4 1.2 2 1.3.8 5 2.6 6.7 3.5q13.3 7.3 27.4 12.4c2.2.8 5.4 1.3 7.4 2.3.6.3 1.2.4 1 1.3a147 147 0 0 1-30.4-12.1q-6.3-3.4-12.7-6.4c-.8-.4-1.3-1.8-2.2-2.5-2.6-2.3-6-3.7-8-6.5q.9-.1 1.5.5m239.9-416.3q-1.9.1-2.1-1.5a127 127 0 0 1-1.3-44.3c.7 0 .5 1.5.4 2-.7 11.4-1 22.3.9 33.7.6 3.4 2 6.6 2 10m-25.3 32.7c-3.8-1.5-4.8 1.8-5.1 4.9-1 9.3 4.9 14.3 7.9 22.1.6 1.7 1.4 5.3-.9 2.6-2.6-3-7.8-16.1-8.2-20.1-.3-3 .4-8 2.3-10.3 1.4-1.8 4.4-2.2 4 .8m105.9-81.4c-.9-.2-.8-2.4-.9-3.1-.3-14 .3-28.2.5-42 0-5.8-.5-12.2 0-17.8 0-.5.2-2.4.6-2.3zm-64.4 307.7a36 36 0 0 0-12 9 35 35 0 0 0-6.4 11.4c-1.4-1.1-.4-2.9 0-4.1 2-5 8.3-13.3 12.6-16.2 1.6-1.1 5.4-3.1 5.8 0m38.9 51.2c.7 6.3 2.3 12.6 3 18.9.4 3.6.8 8.3.9 11.8 0 1 .2 2.1-.7 2.8-1 .2-.6-.8-.6-1.5-.4-9.7-3.1-18.8-3.8-28-.1-1.2-.5-4 1.2-4M443.2 27s.6.2.8.6c1.2 3.2-1.2 4-1 5.2 0 .2 2.9 1.4 2.3 4-.8 3.3-3.4.7-5 1.8-2.8 2 2.2 5.1 2.8 6.4a70 70 0 0 1 1.8 18c0 2-.1 4.8-.3 6.9 0 .6.3 1.2-.5 1.7-.4-6 .1-12-.2-18-.2-2.2-.6-5.5-1.5-7.4-1.1-2.2-5.4-5.4-2.8-8.3 1.3-1.4 4.6 1 4.7-1.2 0-2.2-1.8-2.4-2.2-3.4-.9-2.2 1.4-2.9 1.3-3.8-.1-.7-2.7-4.5-3.2-6.2q-.3-1.3-.2-2.5zm-40 578.2-1.8.4c-7.7-.7-20.5-5-28.2-7.5a63 63 0 0 1-10.7-3.7q.9-1 2.2-.5c5.2 1 11.2 4 16.4 5.7 6.7 2 13.5 3.1 20.3 4.7.7.2 1.8-.7 1.8 1m-197.6 16a60 60 0 0 1 20.6 8.3c.3 1.2-1 1.5-2 1.5-.8-.1-7.2-4.3-9-5q-6.9-2.9-14.4-4.2l-4.8-.6c3 .3 6.6-.3 9.6 0M454.4 573l-4.6-4c-4.5-4.7-11-9.6-16.9-12.4-2.4-1.2-6.2-1.9-8.3-3-.6-.4-1.3-.4-1-1.4.4-.3 6.5 1.7 7.4 2 4.6 2 21.3 12.7 23.1 16.8q.4 1 .3 2m-88.1-4.2c.2.2.5 1.6.2 2-3.6 4.7-6.5 10.6-10.3 15.2-.7.8-1.9 2.2-3 2.3-1-1.2 5.3-9 6.3-10.5 1.2-1.9 3.7-8.3 5.1-8.8.4-.2 1.4-.4 1.7-.2m9.7-96.2c-2.7 1-6.2-2.6-6.7-5A16 16 0 0 1 376 451c.8-.5 4-2.7 4.6-2.6.5 0 .7.6.3 1-1.3 1.4-4.7 2.9-6.4 4.7-3.4 3.7-5.2 8.9-3 13.7 1.8 4.2 5 .2 4.7 4.8m.8 101.7c.2.3-1 2.2-1.4 2.6a145 145 0 0 1-24.3 25.4c-.7.5-1.5 1.2-2.3 1.2-1-.8 4.6-4.4 5-4.8q11.8-11 21.3-23.7c.5-.8.7-.9 1.6-.7m8.4-27.9a114 114 0 0 1 26.1 1.2c1.6.3 1.4 1.7-.3 1.6-1.8 0-4.1-1-6-1.2q-12-1.3-23.7 0c-1.4.3-2.8 1.4-4 .7v-.9c2.5-1 5.1-1.1 7.9-1.3M291 641.3q-1.1 0-2.1-.3c-4-1.2-24.1-10.6-26.7-13.1-.5-.5-1.1-.6-.9-1.5zm-115.7-2.2c-.8.8-19.2-7.6-21.4-8.8a93 93 0 0 1-15.9-9.8l16 8.8q8.2 3.4 16.2 7c.5.2 6.2 1.8 5.1 2.8m13.6-14.8c-.4-1 .9-1 1.6-1.1 5.1-.8 13.6 1.5 18.1 4 1 .5 7.6 4.3 3.4 4.3-2 0-5.7-3.4-7.9-4.5-4.6-2.3-10-3.8-15.2-2.7m137.6-11c.9.8-3.7 3.7-4.5 4.1a188 188 0 0 1-35.3 16.8q-2.1.8-4.2.7l16-6.3c9.5-3 17.8-10.8 26.2-14.8q.8-.6 1.8-.5m-42.8 28.8-.6 1.3-4.3-1.6a257 257 0 0 1-21-10.5c-.3-.2-4-2.1-3.3-2.8zm51.7 7.6-.2 1.3a96 96 0 0 1-35-5.3c-.6-.3-2-.4-1.6-1.5a95 95 0 0 0 36.8 5.5M365.3 281l1.2.4c.7 2.6 5.4 7.7 5.4 10q.1.8-.7 1.5c-.8.1-1-.2-1.5-.7-.4-.3-5-6.7-5.2-7.1-.5-1.3-.2-3 .7-4.1M243 641.7c-1.2.5-2.5-.8-3.5-.8l-2.1.4c-.8 0-5.5-3.7-6.2-4.5q-.6-.6-.4-1.4c1 .2 2-.4 2.8-.4a60 60 0 0 1 8.2 4.8c.6.5 1.4 1 1.3 2zm116.1-398c-.6-4.4-6-9-1.5-12.7l3.6 9.1c.4 1.6-.3 3.4-2 3.6m-83.1 401c-5.8-1.7-11.6-4.7-17-7.4-2.2-1.2-9-4.4-10.4-5.6-.6-.6-.7-.4-.5-1.4l13.1 6.5c4 2 8.1 4.4 12.3 6.3.9.5 2.6 0 2.5 1.6m176.6 7.6-5.2 1.2c-3-4.7 3.7-8 6.5-11l-3.2 7.2c1 .7 2.2 1 2 2.6M418 532.7c-1 .3-1-.7-1.2-1.5-.5-2.7-.6-6-1-8.8-.5-3.6-2-9-2-12.3q-.1-1.1.6-2c2.6 7.9 3 16.5 3.6 24.7M267.2 645.5q-9.5-3.5-18.5-8.4l-4.3-2.4c-.7-.5-2.2-1.4-2.2-2.3zm98.7 8c-.6.9-9.7.3-10.6-1.4 0-1.5 11.6-3.7 10.6 1.4"/>
  <path d="m330.7 652.3-3.1.6a102 102 0 0 1-34.5-5.6c-.6-.3-1.1.2-1-1l20.3 5q9.1 1.1 18.3 1m-105.8-11-6-.7c0-1.3-3.3-3.3-3-4.2.5-1 3-.7 3.8-.4 1 .3 6.3 4 5.2 5.3m153.3-7.7c-.3.3-1.5-.7-1.8-.9-4.4-3.3-8.4-8-12.3-11.8-.5-.4-4.8-3.5-4.1-4.2 1 .1 2 1 2.7 1.7a127 127 0 0 1 14.6 13.7c.4.5 1 .7.9 1.5m-12.9-437c2-.4 2 7.3 3.8 8.5.1.9-1.9 2.5-2.6 1.3-.6-1.6-3.7-9.2-1.2-9.8M207 635.8c1 2 3.7 2.6 3.9 5-4.2.1-6.3-.5-7.7-4.6zm143.6-372.7q-.6.3-1.1 0c-.3-.1-2.4-3.6-2.6-4q-.9-2.1.6-4c.8-.2 5.9 6.4 3.1 8m60.6 281.1c-1.4-5.6 6.2-9.8 10.4-11.8l.4 1.2c-3 1.2-8.2 4.6-9.3 7.6-.4 1.1.3 3-1.5 3m-18 41.8c0 .2.7.2.7.4 0 1.1-7 8-9 7.8l2.9-4.2c2.4-1 3.5-3.2 4.8-5.3.7-.7.2.8.6 1.3m40.5-325.4c2.4.2 2.3 3.7 1 5-1.8.6-4.8-4-5.7-5.2 2-1.1 3.9 3.5 4.7.2M393.9 442l-7.2 1.3c-2.4-3.7 7.6-5 7.2-1.3m21.6 106.4c.5 3.3-2 5-3.6 7.3-1 1.3-1.5 3.9-3.6 4.2 2-3.4 3.5-7.3 5.8-10.5.4-.5.5-1.1 1.4-1m-44.1-328.8c4-1.8 5.3 4.9 2.3 6.7zM410.2 443c2.5-.7 3.7 3 4 4.7.2.5.7.5-.2 1.1l-4.7-3c-.5-.7 0-2.6 1-2.8m3.9-13.7c-1.3.1-2.6-.7-3-1.8-.4-.6-1-5-.2-5 3.1 1.1 3 4 3.2 6.8M363.4 133c-1 0-.3-1.5-.1-2 .7-1.8 3.8-6.2 5.4-7.2.9-.5 4.4-2.2 4-.3-1 1-2.2.7-3.4 1.3-2 1.1-5 6-6 8.2M445.1 5.5c-.4-.4 2.4-2.7-.3-4.2-1-.8-2.5.4-3.3 1.2l-1.9 4.3c.3-2.3 1.3-5.9 3.8-6.5.5-.2 2.6-.4 3-.3 2.8.8 0 6.8-1.3 5.5m-91.5 588.3c.3.3 0 1.4-.4 1.9-.3.4-5.1 4.8-5.5 5q-1 .8-2.1.7c-.2-.8.4-1 .9-1.4 1.9-1.7 3.7-3.8 5.6-5.4.3-.2 1.1-1.2 1.5-.8m41.5-150.1v2.2l-7.6.4c-.2-1.1.2-.8.8-1 1-.5 6.3-2 6.8-1.6m-9.7 54.3s.5 2 .4 2.3c0 2.4-2 3.3-4 3.6l-.6-1c0-.5 2.5-.9 2.9-2.2 0-.4-.8-4 1.3-2.7m-36 95.4-3.6 4.5-3.2 1.8c-.2-.8.4-1 .8-1.5.6-.7 5.2-5.5 6-4.8m57.1-392.5v1.6c-.4.7-4.4.2-4.6-.6l.7-1.5zM338 604.4c.1.8-.2 1-.7 1.7s-5.3 4.2-5.7 3.8c-.2-.8.4-1 .8-1.5.6-.5 5.1-4.4 5.5-4m63.6-398.1c-1.5-2.2 3.2-2.8 3.8-1 .6 2.1-3.4 1.5-3.8 1M385 556l-1.4 3.8h-2c.8-1.7 1-4 3.4-3.7m-280 68.2c0 .8.2.9-.6.9l-6-.9c-.7-.1-.7.2-.6-.8q3.7-.5 7.2.8m247.8-44.1c.2.3-3 5.7-3.7 6.3-.4.5-.6 1.1-1.4 1-.3-.4 3.6-6 4-6.5s0-1 1.1-.8m-8.9 13.2-3.6 4.6c-.9-.6-.6-.6-.2-1.4.4-.6 3-4 3.8-3.2m15.6-260.7-2.6-6-.3-2c1.5 1.9 2.8 5.5 3 8m-20 274.3-6.7 5c-.3-.9.4-1 1-1.4 1.5-1.3 3.7-3.2 5.7-3.7m50.4-51.3c.4.4-2 5.3-3.3 4.3.1-.6 2.6-5 3.4-4.3m-14.9 17-2.9 4.5-1.3 1c-.2-.2 2.4-4.2 2.8-4.6q.5-.9 1.4-.9m25-.8a9 9 0 0 1 3.4-5.1l-2.2 4zm-44.9 4.2c.1 1.3-1.2 2.6-2.1 3.4.3-.9.8-3.5 2.1-3.4m53-15.7-3.9 5.1c.3-1.3 1.6-3.1 2.5-4.1.4-.5.5-1.2 1.3-1m-50.3 10.2q-.4-1.7 1.2-2.6.4 1.9-1.2 2.6m-67.4 64.8c-.5 1-2.4 1.4-3.4 1.3.5-1 2.5-1.1 3.4-1.3m137.2-101.7c-1-.3.2-3.2.9-3.4zm-133 100c-.4 1.1-1.8 1.4-3 1.3.4-.8 2.3-1 3-1.3m129.7-91.9 2.5-4.3a6 6 0 0 1-2.5 4.3m-40.1 49.7c-.7.7-1 2-2.3 2 1-1 2-3.2 3.4-3.2.1.8-.8.8-1.1 1.2M439.6 8c-.7.8 0 2.6-.8 3 .2-.8-.8-3.3.8-3m-77.1 128h-.8l.4-1.7h.4z"/>
</svg>
